HIERARCHY
ROOT Hips
{
	OFFSET -3.958830 18.904000 13.208200
	CHANNELS 6 Xposition Yposition Zposition Zrotation Yrotation Xrotation 
	JOINT LHipJoint
	{
		OFFSET 0.000000 0.000000 0.000000
		CHANNELS 3 Zrotation Yrotation Xrotation
		JOINT LeftUpLeg
		{
			OFFSET 1.800000 -1.400000 0.085000
			CHANNELS 3 Zrotation Yrotation Xrotation
			JOINT LeftLeg
			{
				OFFSET 2.215000 -6.000000 0.000000
				CHANNELS 3 Zrotation Yrotation Xrotation
				JOINT LeftFoot
				{
					OFFSET 2.500000 -6.900000 0.000000
					CHANNELS 3 Zrotation Yrotation Xrotation
					JOINT LeftToeBase
					{
						OFFSET 0.200000 -0.500000 1.950000
						CHANNELS 3 Zrotation Yrotation Xrotation
						End Site
						{
							OFFSET 0.000000 0.000000 0.000000
						}
					}
				}
			}
		}
	}
	JOINT RHipJoint
	{
		OFFSET 0.000000 0.000000 0.000000
		CHANNELS 3 Zrotation Yrotation Xrotation
		JOINT RightUpLeg
		{
			OFFSET -1.800000 -1.400000 0.085000
			CHANNELS 3 Zrotation Yrotation Xrotation
			JOINT RightLeg
			{
				OFFSET -2.215000 -6.000000 0.000000
				CHANNELS 3 Zrotation Yrotation Xrotation
				JOINT RightFoot
				{
					OFFSET -2.500000 -6.900000 0.000000
					CHANNELS 3 Zrotation Yrotation Xrotation
					JOINT RightToeBase
					{
						OFFSET -0.200000 -0.500000 1.950000
						CHANNELS 3 Zrotation Yrotation Xrotation
						End Site
						{
							OFFSET 0.000000 0.000000 0.000000
						}
					}
				}
			}
		}
	}
	JOINT LowerBack
	{
		OFFSET 0.000000 0.000000 0.000000
		CHANNELS 3 Zrotation Yrotation Xrotation
		JOINT Spine
		{
			OFFSET -0.087000 1.940000 -0.288900
			CHANNELS 3 Zrotation Yrotation Xrotation
			JOINT Spine1
			{
				OFFSET 0.000000 1.950000 0.060000
				CHANNELS 3 Zrotation Yrotation Xrotation
				JOINT Neck
				{
					OFFSET 0.000000 0.000000 0.000000
					CHANNELS 3 Zrotation Yrotation Xrotation
					JOINT Neck1
					{
						OFFSET 0.000000 1.600000 0.340000
						CHANNELS 3 Zrotation Yrotation Xrotation
						JOINT Head
						{
							OFFSET 0.000000 1.667000 -0.240000
							CHANNELS 3 Zrotation Yrotation Xrotation
							End Site
							{
								OFFSET 0.000000 0.000000 0.000000
							}
						}
					}
				}
				JOINT LeftShoulder
				{
					OFFSET 0.000000 0.000000 0.000000
					CHANNELS 3 Zrotation Yrotation Xrotation
					JOINT LeftArm
					{
						OFFSET 2.700000 1.550000 -0.730000
						CHANNELS 3 Zrotation Yrotation Xrotation
						JOINT LeftForeArm
						{
							OFFSET 5.450000 0.000000 0.000000
							CHANNELS 3 Zrotation Yrotation Xrotation
							JOINT LeftHand
							{
								OFFSET 3.450000 0.000000 0.000000
								CHANNELS 3 Zrotation Yrotation Xrotation
								JOINT LeftHandIndex1
								{
									OFFSET 0.750000 0.000000 0.000000
									CHANNELS 3 Zrotation Yrotation Xrotation
									End Site
									{
										OFFSET 0.000000 0.000000 0.000000
									}
								}
							}
						}
					}
				}
				JOINT RightShoulder
				{
					OFFSET 0.000000 0.000000 0.000000
					CHANNELS 3 Zrotation Yrotation Xrotation
					JOINT RightArm
					{
						OFFSET -2.700000 1.550000 -0.730000
						CHANNELS 3 Zrotation Yrotation Xrotation
						JOINT RightForeArm
						{
							OFFSET -5.450000 0.000000 0.000000
							CHANNELS 3 Zrotation Yrotation Xrotation
							JOINT RightHand
							{
								OFFSET -3.450000 0.000000 0.000000
								CHANNELS 3 Zrotation Yrotation Xrotation
								JOINT RightHandIndex1
								{
									OFFSET -0.750000 0.000000 0.000000
									CHANNELS 3 Zrotation Yrotation Xrotation
									End Site
									{
										OFFSET 0.000000 0.000000 0.000000
									}
								}
							}
						}
					}
				}
			}
		}
	}
}
MOTION
Frames: 7
Frame Time: 0.016667
-0.125890 17.179230 -1.188630 -5.915659 -42.000338 -7.431489 -14.680025 12.370736 3.284742 8.321442 0.516203 1.966179 -8.000423 3.780176 -1.927554 -1.624589 4.572020 2.483660 0.489100 0.937630 0.567280 18.639845 -11.743624 3.416152 -5.185547 -2.466173 5.920927 5.496955 -6.222097 2.035318 -1.462001 -4.720308 1.763093 0.341360 0.489180 0.782700 -5.355753 1.402217 -7.548927 16.753172 -6.893564 37.560347 -12.514219 1.425384 -14.776526 -7.526263 -3.726801 -0.585861 -6.268296 13.220989 18.918624 1.558850 11.404280 -86.213390 19.748719 11.259723 -4.938090 34.272929 -37.632127 -13.005676 123.838613 29.200786 41.915732 -4.382148 2.023505 1.781030 -0.287890 1.129130 -0.379310 -6.558594 -13.207223 -9.940930 -27.272945 35.779516 -13.360344 -131.457856 -21.050412 46.610300 2.979026 -0.530703 -0.352740 0.972520 0.592210 0.269210 
-0.123680 17.184440 -1.186650 -6.081774 -41.546377 -7.742928 -14.675327 12.416123 3.294841 8.578474 0.466710 2.199784 -8.082960 3.845510 -1.728003 -1.624746 4.612022 2.465785 0.538640 0.967950 0.642370 18.633228 -11.725615 3.441924 -5.117195 -2.542281 6.358044 5.542781 -6.203325 1.884765 -1.478293 -4.759872 1.725280 0.357820 0.477100 0.774240 -5.294610 1.330227 -7.582823 16.892767 -7.274283 38.366964 -13.027745 1.474977 -15.847500 -7.336234 -3.369033 -1.129490 -5.701207 13.014041 19.778184 1.393660 11.446340 -84.147730 21.485442 11.297415 -4.890012 31.472909 -39.426318 -12.396628 125.752031 29.758035 43.694637 -4.398095 2.080353 1.765550 -0.290470 1.117340 -0.381800 -8.633914 -13.701674 -10.052314 -24.469162 37.066167 -12.039161 -132.495879 -21.487339 47.695939 3.010820 -0.606661 -0.346190 0.959200 0.563640 0.254430 
-0.124820 17.195720 -1.174440 -6.579000 -41.123518 -7.361991 -14.669819 12.569628 3.323132 9.041620 0.303969 1.864392 -8.295055 3.943730 -1.458334 -1.597280 4.671527 2.473903 0.532950 0.887290 0.710480 18.610933 -11.647242 3.474754 -4.725536 -2.521517 6.312564 5.629545 -6.116746 1.620288 -1.446900 -4.741604 1.724801 0.296150 0.499040 0.768810 -5.117227 1.006259 -7.667516 17.441575 -7.699714 38.923785 -14.632551 2.016676 -18.278768 -6.496905 -2.726352 -2.839393 -4.834361 12.152349 22.765846 0.609380 11.268020 -80.155350 24.847215 11.058415 -4.610488 25.535887 -42.849141 -10.754340 128.351679 30.255890 45.672613 -4.444938 2.187489 1.726130 -0.268570 1.045470 -0.391770 -13.513086 -14.132689 -10.278170 -15.598052 36.738983 -7.224840 -133.764314 -21.498517 46.641763 3.082119 -0.833520 -0.352220 0.909120 0.556070 0.224110 
-0.096140 17.198280 -1.189780 -7.369948 -41.519533 -9.054345 -14.697303 12.769015 3.374884 10.250605 0.364335 3.621726 -8.555712 4.354945 -1.123629 -1.337323 4.955069 2.484632 0.408170 0.615500 0.687580 18.563691 -11.482311 3.511033 -4.586531 -2.879980 8.281931 5.487025 -6.251517 1.570744 -1.408738 -4.910281 1.745939 0.065110 0.575460 0.747630 -4.975806 0.387033 -7.738125 18.306911 -9.402681 41.249878 -15.845389 1.644141 -19.097836 -5.838645 -3.861986 -5.350046 -7.613613 11.905171 28.158631 1.297120 11.764980 -74.122000 26.409653 7.571671 -2.637612 21.460247 -40.256869 -9.576101 129.435982 29.763511 45.778848 -4.404019 2.384642 1.638590 -0.255430 0.892600 -0.376260 -16.096442 -9.421446 -7.506881 -13.618394 32.721829 -7.246018 -134.630815 -21.434025 44.989968 3.172835 -1.039879 -0.345310 0.792040 0.554920 0.225940 
-0.047560 17.190940 -1.232800 -7.962190 -42.868287 -12.988039 -14.756802 12.940788 3.468918 11.753651 0.507993 7.607723 -8.718574 4.931404 -0.772459 -1.029803 5.427791 2.442881 0.346440 0.390500 0.678150 18.492547 -11.279495 3.540581 -5.050691 -3.614061 12.112202 5.105399 -6.530367 1.714255 -1.447030 -5.311722 1.668785 -0.105240 0.589300 0.693820 -4.847152 -0.299113 -7.778028 18.816537 -11.596699 44.962870 -17.072059 0.573136 -18.199837 -4.249284 -5.378919 -9.030200 -12.196422 13.577035 35.925962 1.847610 12.894660 -62.330390 26.142256 1.329471 0.482868 19.509212 -33.185958 -9.036246 129.368871 28.584181 44.211699 -4.216827 2.676829 1.582780 -0.266960 0.745990 -0.302280 -18.272293 -0.660214 -2.606323 -14.140408 26.961903 -9.112222 -135.310145 -21.771851 42.939595 3.201576 -1.347166 -0.367460 0.627700 0.479560 0.191940 
0.017840 17.172880 -1.279940 -9.046271 -44.895650 -17.784514 -14.808489 12.863246 3.525795 13.750907 0.688981 13.021581 -8.748902 5.506718 -0.379542 -0.285808 5.922305 2.330978 0.419570 0.538350 0.221960 18.445326 -11.227615 3.575016 -5.561888 -4.527891 16.888231 4.698472 -6.584011 2.619824 -1.695988 -5.768183 1.669790 0.191820 0.178800 0.744020 -4.988463 -0.268510 -7.694438 20.799681 -14.373376 46.753218 -19.614661 -0.273711 -11.328027 -1.540091 -6.135255 -13.712644 -16.277394 16.321185 43.259653 1.065940 14.040180 -43.880850 22.733997 -7.667058 3.916107 20.761722 -21.749982 -9.988180 128.187655 26.578809 40.481882 -4.051583 3.326813 1.157790 -0.256350 0.828310 0.100650 -19.413283 10.689784 3.627983 -14.734770 15.934378 -11.598102 -135.596937 -21.385435 36.571771 2.869273 -2.058928 -0.104750 0.314670 0.289580 0.102430 
0.061010 17.159960 -1.329450 -8.979681 -45.965942 -22.337253 -14.817228 12.611689 3.531710 14.737068 0.847781 17.368849 -8.720792 6.074726 0.238953 0.095772 6.259785 2.253471 0.386320 0.564930 0.161370 18.427451 -11.437890 3.623625 -6.623763 -5.175937 20.572882 4.068642 -6.863812 3.101471 -1.740486 -6.167740 1.655275 0.196910 0.149470 0.713480 -5.419510 0.655348 -7.563322 21.519509 -15.746477 48.238883 -20.524464 -0.540840 -2.037930 -0.480445 -6.987396 -14.573866 -18.134305 16.101973 42.566504 -0.969100 12.907320 -37.152650 19.294637 -12.068638 4.825404 23.587104 -14.935887 -11.846513 126.288600 24.945280 35.059779 -4.062124 3.402366 0.897500 -0.185950 0.792060 0.134920 -18.166401 15.729617 6.224309 -17.508701 8.426904 -14.004398 -133.149030 -20.593891 29.523952 2.899906 -2.128705 0.019800 0.279430 0.231580 0.155440 
